<svg width="264" height="264" viewBox="0 0 264 264" fill="none" xmlns="http://www.w3.org/2000/svg">
<rect width="264" height="264" rx="40" fill="#0C0F12"/>
<g clip-path="url(#clip0_6009_5530)">
<path d="M174.114 74.8164L180.464 98.3571L186.585 74.8164H194.349L183.997 109.538V127.077H175.761V109.303L167.408 82.1139H154.35V98.122H164.937V105.42H154.35V127.077H146.113V74.8164H174.114Z" fill="#FE4F18"/>
<path d="M93.8767 88.942H86.3475C86.3782 85.2091 86.3596 81.2478 81.5137 81.6365C77.8479 81.9303 77.5395 86.1373 78.171 88.9995C79.4792 94.928 87.011 99.1043 90.542 103.93C98.5143 114.824 93.1037 131.25 77.5916 127.243C73.5907 126.21 69.6406 121.737 69.6406 117.543V111.305H77.1698C77.1577 115.297 76.7265 120.984 82.4441 120.229C85.6053 119.811 86.1633 116.475 85.8509 113.802C84.8164 104.981 71.057 101.211 69.9049 89.7367C68.8717 79.4395 74.3156 72.2822 85.1848 74.4512C89.4473 75.3019 93.878 79.6078 93.878 84.1166V88.942H93.8767Z" fill="#FE4F18"/>
<path d="M117.407 74.8164V82.1139H103.29V96.9454H114.584V104.243H103.29V119.78H117.407V127.077H95.0547V74.8164H117.407Z" fill="#FE4F18"/>
<path d="M142.584 79.2891H134.113V127.076H142.584V79.2891Z" fill="#FE4F18"/>
<path d="M129.877 96.4746H121.406V127.078H129.877V96.4746Z" fill="#FE4F18"/>
<path d="M103.788 137.086C114.41 137.909 115.077 145.711 114.509 154.641C114.285 158.175 112.941 162.172 109.466 163.681L109.32 164.163C112.041 165.126 113.492 167.636 114.103 170.331C115.481 176.402 113.33 183.556 115.44 189.6H107.319C106.796 188.95 106.572 187.724 106.498 186.889C106.159 183.055 106.732 178.761 106.506 174.872C106.373 172.588 106.023 169.57 103.607 168.589C103.426 168.516 102.218 168.171 102.142 168.171H98.0226V189.6H90.0195V137.086H103.79H103.788ZM98.0212 144.621V160.517C98.646 161.067 100.11 160.934 100.973 160.88C104.089 160.685 105.996 159.604 106.269 156.287C106.427 154.349 106.496 148.401 105.836 146.813C105.492 145.983 104.225 144.623 103.318 144.623H98.0226L98.0212 144.621Z" fill="#FE4F18"/>
<path d="M129.506 136.68C138.118 135.705 143.746 139.734 144.387 148.509C143.963 158.102 144.957 168.182 144.399 177.718C143.879 186.613 138.747 190.758 129.904 190.08C123.798 189.611 119.922 185.081 119.441 179.117C118.631 169.055 120.05 157.962 119.429 147.79C119.899 141.843 123.396 137.37 129.506 136.678V136.68ZM131.152 143.975C129.361 144.195 128.216 145.222 127.78 146.962C127.224 157.816 127.224 168.871 127.78 179.725C128.82 184.263 135.866 183.519 136.126 178.861C135.593 169.006 136.923 158.249 136.161 148.5C135.928 145.516 134.347 143.582 131.154 143.976L131.152 143.975Z" fill="#FE4F18"/>
<path d="M157.571 137.085V179.12C157.571 179.913 158.654 181.586 159.335 182.064C160.99 183.229 164.141 182.934 165.301 181.2C165.433 181.004 166.044 179.688 166.044 179.59V137.437L166.397 137.084H173.811V179.825C173.811 182.728 171.287 186.979 168.797 188.466C160.987 193.13 149.332 188.897 149.332 178.883V137.084H157.57L157.571 137.085Z" fill="#FE4F18"/>
<path d="M84.6012 154.747H76.8332V147.8C76.8332 147.516 76.3619 146.204 76.175 145.868C75.023 143.79 72.0287 143.441 70.0756 144.572C68.4563 145.51 68.2201 147.959 68.1133 149.674C67.5139 159.313 68.3536 169.863 68.415 179.536C69.1078 183.489 75.3674 183.754 76.5315 179.996C77.0508 178.318 77.0748 170.469 76.8452 168.511C76.8051 168.166 76.8185 167.909 76.4807 167.699H73.0673V160.399H84.6012V178.884C84.6012 184.678 80.0864 189.568 74.3595 190.067C66.235 190.776 60.6482 187.082 60.1102 178.66C59.4601 168.472 60.6162 157.593 60.1236 147.332C61.0781 139.393 66.4099 136.01 74.1352 136.606C79.9756 137.056 84.6012 141.866 84.6012 147.8V154.747Z" fill="#FE4F18"/>
<path d="M187.698 169.819V189.6H179.695V137.086H192.994C197.366 137.086 201.391 139.82 202.942 143.853C204.547 148.027 204.509 160.225 202.499 164.255C201.089 167.083 197.143 169.818 193.937 169.818H187.698V169.819ZM187.698 144.621V162.165L188.051 162.518H192.052C192.161 162.518 193.691 162.086 193.883 161.996C194.958 161.485 195.581 160 195.701 158.87C195.94 156.648 195.996 149.719 195.644 147.621C195.453 146.486 194.244 144.621 192.993 144.621H187.697H187.698Z" fill="#FE4F18"/>
</g>
<defs>
<clipPath id="clip0_6009_5530">
<rect width="144.175" height="116.301" fill="white" transform="translate(59.9102 74.0625)"/>
</clipPath>
</defs>
</svg>
