<svg width="672" height="197" viewBox="0 0 672 197" fill="none" xmlns="http://www.w3.org/2000/svg">
<path d="M257.706 40.5449L271.788 92.7289L285.364 40.5449H302.584L279.622 117.516V156.397H261.356V116.993L242.834 56.7193H213.868V92.2059H237.353V108.386H213.868V156.397H195.602V40.5449H257.706Z" fill="#F1F1EC"/>
<path d="M79.753 71.8532H63.0556C63.1264 63.5781 63.0828 54.7963 52.3344 55.657C44.2064 56.3053 43.52 65.6319 44.92 71.9785C47.8237 85.1185 64.5265 94.3797 72.3604 105.074C90.0383 129.223 78.0424 165.642 43.6398 156.756C34.76 154.474 26 144.559 26 135.26V121.433H42.6974C42.6701 130.28 41.7168 142.892 54.3937 141.214C61.4049 140.288 62.6416 132.89 61.9497 126.968C59.6562 107.411 29.1379 99.0538 26.5829 73.6183C24.2949 50.7922 36.3671 34.9229 60.4734 39.7333C69.9252 41.6182 79.753 51.1626 79.753 61.1593V71.8586V71.8532Z" fill="#F1F1EC"/>
<path d="M131.938 40.5449V56.7193H100.624V89.5965H125.673V105.776H100.624V140.217H131.938V156.397H82.3633V40.5449H131.938Z" fill="#F1F1EC"/>
<path d="M187.778 50.4609H168.988V156.398H187.778V50.4609Z" fill="#F1F1EC"/>
<path d="M159.594 88.5566H140.805V156.397H159.594V88.5566Z" fill="#F1F1EC"/>
<path d="M423.562 40.0547C447.118 41.8797 448.594 59.1763 447.341 78.9734C446.846 86.8073 443.86 95.6708 436.157 99.0157L435.836 100.083C441.872 102.219 445.086 107.781 446.443 113.757C449.499 127.219 444.726 143.072 449.406 156.473H431.396C430.235 155.035 429.74 152.311 429.576 150.464C428.824 141.966 430.094 132.443 429.593 123.825C429.298 118.764 428.519 112.069 423.159 109.895C422.761 109.731 420.081 108.969 419.912 108.969H410.776V156.473H393.027V40.0547H423.567H423.562ZM410.776 56.7629V91.999C412.16 93.2193 415.407 92.9251 417.324 92.8053C424.232 92.3749 428.465 89.9779 429.07 82.6234C429.424 78.3251 429.571 65.1416 428.111 61.6169C427.348 59.7755 424.537 56.7629 422.527 56.7629H410.782H410.776Z" fill="#F1F1EC"/>
<path d="M480.607 39.1546C499.706 36.9918 512.187 45.9261 513.609 65.38C512.667 86.648 514.873 108.995 513.636 130.132C512.481 149.853 501.101 159.038 481.489 157.534C467.946 156.494 459.35 146.453 458.282 133.232C456.484 110.923 459.633 86.3321 458.255 63.7838C459.295 50.6003 467.053 40.6854 480.607 39.1546ZM484.257 55.3235C480.28 55.8138 477.747 58.0909 476.777 61.9479C475.54 86.0107 475.54 110.515 476.777 134.577C479.081 144.639 494.711 142.989 495.288 132.66C496.492 110.967 496.492 86.6862 495.365 65.3528C495.016 58.7283 491.339 54.4518 484.262 55.3235H484.257Z" fill="#F1F1EC"/>
<path d="M542.848 40.0547V133.238C542.848 134.998 545.251 138.708 546.76 139.765C550.432 142.347 557.421 141.693 559.992 137.853C560.287 137.417 561.643 134.502 561.643 134.284V40.8392L562.428 40.0547H578.874V134.807C578.874 141.247 573.274 150.666 567.75 153.962C550.432 164.302 524.582 154.921 524.582 132.715V40.0547H542.854H542.848Z" fill="#F1F1EC"/>
<path d="M381.013 79.2083H363.787V63.8075C363.787 63.1755 362.741 60.2664 362.327 59.5255C359.772 54.9167 353.132 54.1432 348.801 56.6546C345.211 58.7356 344.688 64.1616 344.448 67.9641C343.119 89.3302 344.982 112.717 345.118 134.165C346.654 142.931 360.541 143.514 363.117 135.184C364.272 131.463 364.321 114.068 363.815 109.727C363.728 108.964 363.755 108.392 363.003 107.923H355.436V91.7381H381.019V132.716C381.019 145.556 371.006 156.397 358.302 157.509C340.28 159.083 327.892 150.89 326.699 132.22C325.256 109.634 327.821 85.5168 326.732 62.7724C328.846 45.1762 340.673 37.6746 357.806 38.993C370.761 39.9899 381.019 50.6566 381.019 63.8075V79.2083H381.013Z" fill="#F1F1EC"/>
<path d="M609.663 112.619V156.468H591.914V40.0547H621.408C631.105 40.0547 640.034 46.118 643.472 55.0578C647.029 64.3081 646.947 91.3507 642.486 100.285C639.359 106.55 630.609 112.619 623.495 112.619H609.663ZM609.663 56.7629V95.6544L610.447 96.4389H619.322C619.567 96.4389 622.961 95.4801 623.386 95.2785C625.766 94.1454 627.15 90.855 627.417 88.349C627.945 83.4242 628.071 68.0616 627.292 63.4092C626.867 60.8923 624.186 56.7629 621.414 56.7629H609.668H609.663Z" fill="#F1F1EC"/>
</svg>
