<svg width="206" height="263" viewBox="0 0 206 263" fill="none" xmlns="http://www.w3.org/2000/svg">
<g clip-path="url(#clip0_6009_5315)">
<path d="M159.957 53.668L168.546 85.5073L176.825 53.668H187.326L173.324 100.63V124.352H162.186V100.312L150.888 63.5381H133.226V85.1894H147.546V95.0595H133.226V124.352H122.086V53.668H159.957Z" fill="#F1F1EC"/>
<path d="M51.4361 72.7714H41.2528C41.2943 67.7226 41.269 62.3648 34.7149 62.8905C29.7568 63.2879 29.3397 68.978 30.1937 72.8491C31.9632 80.8676 42.1501 86.5162 46.9258 93.0427C57.7086 107.777 50.3907 129.994 29.4101 124.575C23.9989 123.177 18.6562 117.127 18.6562 111.455V103.018H28.8396C28.8233 108.417 28.2401 116.108 35.9733 115.088C40.2489 114.522 41.0036 110.01 40.5811 106.395C39.1818 94.4643 20.5719 89.3649 19.0137 73.8462C17.6162 59.919 24.9793 50.2386 39.6801 53.1721C45.4453 54.3228 51.4379 60.1466 51.4379 66.245V72.7714H51.4361Z" fill="#F1F1EC"/>
<path d="M83.2596 53.668V63.5381H64.1658V83.598H79.4408V93.468H64.1658V114.482H83.2596V124.352H53.0273V53.668H83.2596Z" fill="#F1F1EC"/>
<path d="M117.312 59.7168H105.855V124.349H117.312V59.7168Z" fill="#F1F1EC"/>
<path d="M100.128 82.959H88.6719V124.35H100.128V82.959Z" fill="#F1F1EC"/>
<path d="M64.8412 137.889C79.2081 139.001 80.109 149.554 79.3417 161.632C79.0383 166.411 77.2201 171.818 72.5203 173.859L72.3235 174.511C76.0032 175.814 77.9658 179.208 78.7928 182.853C80.6561 191.065 77.7474 200.74 80.6001 208.916H69.6169C68.9092 208.036 68.6058 206.378 68.5065 205.249C68.0479 200.063 68.8225 194.255 68.5174 188.995C68.3368 185.906 67.8637 181.824 64.5957 180.498C64.3519 180.398 62.7179 179.932 62.615 179.932H57.0431V208.916H46.2188V137.889H64.8431H64.8412ZM57.0412 148.08V169.58C57.8862 170.324 59.8669 170.143 61.0333 170.071C65.2475 169.807 67.8276 168.344 68.196 163.859C68.4108 161.238 68.5029 153.192 67.611 151.045C67.1451 149.923 65.4317 148.082 64.2057 148.082H57.0431L57.0412 148.08Z" fill="#F1F1EC"/>
<path d="M99.626 137.339C111.274 136.021 118.886 141.471 119.753 153.339C119.178 166.314 120.523 179.947 119.769 192.844C119.065 204.875 112.124 210.482 100.164 209.564C91.9054 208.93 86.6621 202.803 86.0121 194.737C84.9161 181.128 86.8354 166.124 85.9959 152.367C86.6314 144.323 91.362 138.273 99.626 137.338V137.339ZM101.852 147.206C99.4292 147.504 97.88 148.893 97.2914 151.247C96.5385 165.927 96.5385 180.879 97.2914 195.559C98.6979 201.697 108.228 200.691 108.58 194.391C107.858 181.061 109.658 166.513 108.627 153.326C108.311 149.291 106.173 146.675 101.854 147.208L101.852 147.206Z" fill="#F1F1EC"/>
<path d="M137.585 137.889V194.741C137.585 195.814 139.05 198.077 139.97 198.724C142.209 200.299 146.47 199.9 148.039 197.555C148.218 197.29 149.045 195.51 149.045 195.377V138.364L149.522 137.887H159.55V195.695C159.55 199.622 156.136 205.371 152.768 207.382C142.206 213.69 126.441 207.965 126.441 194.421V137.887H137.583L137.585 137.889Z" fill="#F1F1EC"/>
<path d="M38.8928 161.777H28.3863V152.382C28.3863 151.997 27.7489 150.223 27.4961 149.768C25.9379 146.957 21.8881 146.486 19.2465 148.016C17.0564 149.284 16.7368 152.597 16.5924 154.916C15.7817 167.953 16.9174 182.221 17.0004 195.305C17.9375 200.652 26.4038 201.01 27.9782 195.926C28.6806 193.658 28.7131 183.041 28.4025 180.393C28.3484 179.927 28.3664 179.579 27.9096 179.295H23.2928V169.421H38.8928V194.423C38.8928 202.26 32.7864 208.873 25.0406 209.548C14.052 210.507 6.49571 205.511 5.76808 194.12C4.88877 180.341 6.45238 165.626 5.78613 151.748C7.0771 141.01 14.2885 136.435 24.7372 137.241C32.6365 137.849 38.8928 144.356 38.8928 152.382V161.777Z" fill="#F1F1EC"/>
<path d="M178.332 182.161V208.916H167.508V137.889H185.495C191.408 137.889 196.852 141.586 198.95 147.042C201.12 152.687 201.069 169.184 198.35 174.636C196.444 178.46 191.106 182.16 186.769 182.16H178.332V182.161ZM178.332 148.08V171.809L178.809 172.286H184.22C184.368 172.286 186.437 171.702 186.697 171.58C188.151 170.89 188.994 168.881 189.156 167.353C189.48 164.347 189.555 154.975 189.079 152.137C188.821 150.602 187.185 148.08 185.493 148.08H178.33H178.332Z" fill="#F1F1EC"/>
</g>
<defs>
<clipPath id="clip0_6009_5315">
<rect width="195" height="157.3" fill="white" transform="translate(5.5 52.6504)"/>
</clipPath>
</defs>
</svg>
