<svg width="316" height="316" viewBox="0 0 316 316" fill="none" xmlns="http://www.w3.org/2000/svg">
<g clip-path="url(#clip0_6009_5524)">
<path d="M245.635 38.5703L258.849 87.5539L271.585 38.5703H287.741L266.199 110.82V147.315H249.063V110.331L231.682 53.7551H204.51V87.0648H226.541V102.25H204.51V147.315H187.371V38.5703H245.635Z" fill="#0C0F12"/>
<path d="M78.6806 67.9615H63.0139C63.0778 60.194 63.0389 51.9513 52.9556 52.76C45.3278 53.3714 44.6861 62.1254 46 68.0809C48.7222 80.4172 64.3944 89.1073 71.7417 99.148C88.3306 121.817 77.0722 155.996 44.7944 147.659C36.4694 145.508 28.25 136.201 28.25 127.475V114.494H43.9167C43.8917 122.801 42.9944 134.634 54.8917 133.064C61.4694 132.194 62.6306 125.252 61.9806 119.691C59.8278 101.335 31.1972 93.4898 28.8 69.615C26.65 48.1885 37.9778 33.2955 60.5944 37.8087C69.4639 39.579 78.6833 48.5386 78.6833 57.9207V67.9615H78.6806Z" fill="#0C0F12"/>
<path d="M127.64 38.5703V53.7551H98.265V84.6165H121.765V99.8012H98.265V132.13H127.64V147.315H81.1289V38.5703H127.64Z" fill="#0C0F12"/>
<path d="M180.027 47.877H162.402V147.312H180.027V47.877Z" fill="#0C0F12"/>
<path d="M153.59 83.6348H135.965V147.314H153.59V83.6348Z" fill="#0C0F12"/>
<path d="M99.3023 168.141C121.405 169.853 122.791 186.088 121.611 204.669C121.144 212.022 118.347 220.34 111.116 223.48L110.813 224.483C116.475 226.487 119.494 231.709 120.766 237.317C123.633 249.95 119.158 264.835 123.547 277.413H106.65C105.561 276.06 105.094 273.508 104.941 271.772C104.236 263.793 105.427 254.858 104.958 246.766C104.68 242.013 103.952 235.733 98.9246 233.693C98.5496 233.54 96.0357 232.823 95.8773 232.823H87.3051V277.413H70.6523V168.141H99.3051H99.3023ZM87.3023 183.82V216.896C88.6023 218.041 91.6496 217.763 93.444 217.652C99.9273 217.247 103.897 214.995 104.463 208.095C104.794 204.063 104.936 191.685 103.563 188.38C102.847 186.655 100.211 183.823 98.3246 183.823H87.3051L87.3023 183.82Z" fill="#0C0F12"/>
<path d="M152.82 167.295C170.739 165.266 182.45 173.651 183.784 191.909C182.9 211.871 184.97 232.845 183.809 252.687C182.725 271.195 172.048 279.822 153.648 278.41C140.942 277.434 132.875 268.008 131.875 255.599C130.189 234.662 133.142 211.579 131.85 190.414C132.828 178.039 140.106 168.732 152.82 167.292V167.295ZM156.245 182.474C152.517 182.933 150.134 185.07 149.228 188.691C148.07 211.276 148.07 234.279 149.228 256.864C151.392 266.307 166.053 264.759 166.595 255.066C165.484 234.559 168.253 212.177 166.667 191.89C166.181 185.681 162.892 181.657 156.248 182.477L156.245 182.474Z" fill="#0C0F12"/>
<path d="M211.215 168.14V255.605C211.215 257.255 213.468 260.738 214.884 261.732C218.329 264.156 224.884 263.542 227.298 259.934C227.573 259.526 228.845 256.789 228.845 256.583V168.87L229.579 168.137H245.006V257.072C245.006 263.114 239.754 271.959 234.573 275.052C218.323 284.757 194.07 275.95 194.07 255.113V168.137H211.212L211.215 168.14Z" fill="#0C0F12"/>
<path d="M59.3816 204.89H43.2178V190.437C43.2178 189.845 42.2372 187.116 41.8483 186.415C39.4511 182.091 33.2205 181.366 29.1566 183.72C25.7872 185.671 25.2955 190.767 25.0733 194.336C23.8261 214.392 25.5733 236.344 25.7011 256.472C27.1428 264.698 40.1678 265.249 42.59 257.428C43.6705 253.938 43.7205 237.605 43.2428 233.531C43.1594 232.814 43.1872 232.278 42.4844 231.842H35.3816V216.651H59.3816V255.116C59.3816 267.172 49.9872 277.346 38.0705 278.385C21.165 279.861 9.53998 272.174 8.42054 254.649C7.06776 233.451 9.47331 210.813 8.44831 189.461C10.4344 172.942 21.5289 165.903 37.6039 167.143C49.7566 168.079 59.3816 178.089 59.3816 190.437V204.89Z" fill="#0C0F12"/>
<path d="M273.907 236.252V277.413H257.254V168.141H284.926C294.023 168.141 302.398 173.829 305.626 182.222C308.965 190.907 308.887 216.288 304.704 224.675C301.771 230.558 293.559 236.25 286.887 236.25H273.907V236.252ZM273.907 183.82V220.326L274.64 221.059H282.965C283.193 221.059 286.376 220.162 286.776 219.973C289.012 218.911 290.309 215.821 290.559 213.47C291.057 208.845 291.173 194.428 290.44 190.062C290.043 187.7 287.526 183.82 284.923 183.82H273.904H273.907Z" fill="#0C0F12"/>
</g>
<defs>
<clipPath id="clip0_6009_5524">
<rect width="300" height="242" fill="white" transform="translate(8 37)"/>
</clipPath>
</defs>
</svg>
