<svg width="264" height="265" viewBox="0 0 264 265" fill="none" xmlns="http://www.w3.org/2000/svg">
<rect y="0.599609" width="264" height="264" rx="40" fill="#FE4F18"/>
<g clip-path="url(#clip0_6009_5317)">
<path d="M174.114 75.1055L180.464 98.6461L186.585 75.1055H194.349L183.997 109.827V127.366H175.761V109.592L167.408 82.403H154.35V98.4111H164.937V105.709H154.35V127.366H146.113V75.1055H174.114Z" fill="#F1F1EC"/>
<path d="M93.8767 89.2311H86.3475C86.3782 85.4982 86.3596 81.5369 81.5137 81.9256C77.8479 82.2194 77.5395 86.4264 78.171 89.2885C79.4792 95.2171 87.011 99.3934 90.542 104.219C98.5143 115.113 93.1037 131.539 77.5916 127.532C73.5907 126.499 69.6406 122.026 69.6406 117.832V111.594H77.1698C77.1577 115.586 76.7265 121.273 82.4441 120.518C85.6053 120.1 86.1633 116.764 85.8509 114.091C84.8164 105.27 71.057 101.5 69.9049 90.0258C68.8717 79.7286 74.3156 72.5713 85.1848 74.7402C89.4473 75.591 93.878 79.8968 93.878 84.4057V89.2311H93.8767Z" fill="#F1F1EC"/>
<path d="M117.407 75.1055V82.403H103.29V97.2344H114.584V104.532H103.29V120.069H117.407V127.366H95.0547V75.1055H117.407Z" fill="#F1F1EC"/>
<path d="M142.584 79.5781H134.113V127.365H142.584V79.5781Z" fill="#F1F1EC"/>
<path d="M129.877 96.7637H121.406V127.367H129.877V96.7637Z" fill="#F1F1EC"/>
<path d="M103.788 137.375C114.41 138.198 115.077 146 114.509 154.93C114.285 158.464 112.941 162.461 109.466 163.97L109.32 164.452C112.041 165.415 113.492 167.925 114.103 170.62C115.481 176.691 113.33 183.845 115.44 189.889H107.319C106.796 189.239 106.572 188.013 106.498 187.178C106.159 183.344 106.732 179.05 106.506 175.161C106.373 172.877 106.023 169.859 103.607 168.878C103.426 168.805 102.218 168.46 102.142 168.46H98.0226V189.889H90.0195V137.375H103.79H103.788ZM98.0212 144.91V160.806C98.646 161.356 100.11 161.223 100.973 161.169C104.089 160.974 105.996 159.893 106.269 156.576C106.427 154.639 106.496 148.69 105.836 147.102C105.492 146.273 104.225 144.912 103.318 144.912H98.0226L98.0212 144.91Z" fill="#F1F1EC"/>
<path d="M129.506 136.969C138.118 135.994 143.746 140.023 144.387 148.798C143.963 158.391 144.957 168.471 144.399 178.007C143.879 186.902 138.747 191.047 129.904 190.369C123.798 189.9 119.922 185.37 119.441 179.406C118.631 169.344 120.05 158.251 119.429 148.079C119.899 142.132 123.396 137.659 129.506 136.968V136.969ZM131.152 144.264C129.361 144.484 128.216 145.511 127.78 147.251C127.224 158.106 127.224 169.16 127.78 180.014C128.82 184.552 135.866 183.808 136.126 179.15C135.593 169.295 136.923 158.538 136.161 148.789C135.928 145.805 134.347 143.871 131.154 144.265L131.152 144.264Z" fill="#F1F1EC"/>
<path d="M157.571 137.374V179.409C157.571 180.202 158.654 181.875 159.335 182.354C160.99 183.518 164.141 183.223 165.301 181.489C165.433 181.293 166.044 179.978 166.044 179.879V137.726L166.397 137.373H173.811V180.114C173.811 183.017 171.287 187.268 168.797 188.755C160.987 193.419 149.332 189.186 149.332 179.172V137.373H157.57L157.571 137.374Z" fill="#F1F1EC"/>
<path d="M84.6012 155.036H76.8332V148.089C76.8332 147.805 76.3619 146.493 76.175 146.157C75.023 144.079 72.0287 143.73 70.0756 144.861C68.4563 145.799 68.2201 148.248 68.1133 149.963C67.5139 159.602 68.3536 170.152 68.415 179.825C69.1078 183.778 75.3674 184.043 76.5315 180.285C77.0508 178.607 77.0748 170.758 76.8452 168.8C76.8051 168.455 76.8185 168.198 76.4807 167.988H73.0673V160.688H84.6012V179.173C84.6012 184.967 80.0864 189.857 74.3595 190.356C66.235 191.065 60.6482 187.371 60.1102 178.949C59.4601 168.761 60.6162 157.882 60.1236 147.621C61.0781 139.682 66.4099 136.299 74.1352 136.895C79.9756 137.345 84.6012 142.156 84.6012 148.089V155.036Z" fill="#F1F1EC"/>
<path d="M187.698 170.108V189.889H179.695V137.375H192.994C197.366 137.375 201.391 140.109 202.942 144.142C204.547 148.316 204.509 160.514 202.499 164.544C201.089 167.372 197.143 170.107 193.937 170.107H187.698V170.108ZM187.698 144.91V162.454L188.051 162.807H192.052C192.161 162.807 193.691 162.375 193.883 162.285C194.958 161.774 195.581 160.289 195.701 159.159C195.94 156.937 195.996 150.008 195.644 147.91C195.453 146.775 194.244 144.91 192.993 144.91H187.697H187.698Z" fill="#F1F1EC"/>
</g>
<defs>
<clipPath id="clip0_6009_5317">
<rect width="144.175" height="116.301" fill="white" transform="translate(59.9102 74.3496)"/>
</clipPath>
</defs>
</svg>
