<svg width="660" height="172" viewBox="0 0 660 172" fill="none" xmlns="http://www.w3.org/2000/svg">
<path d="M251.706 28.0449L265.788 80.2289L279.364 28.0449H296.584L273.622 105.016V143.897H255.356V104.493L236.834 44.2193H207.868V79.7059H231.353V95.8858H207.868V143.897H189.602V28.0449H251.706Z" fill="#0C0F12"/>
<path d="M73.753 59.3532H57.0556C57.1264 51.0781 57.0828 42.2963 46.3344 43.157C38.2064 43.8053 37.52 53.1319 38.92 59.4785C41.8237 72.6185 58.5265 81.8797 66.3604 92.5736C84.0383 116.723 72.0424 153.142 37.6398 144.256C28.76 141.974 20 132.059 20 122.76V108.933H36.6974C36.6701 117.78 35.7168 130.392 48.3937 128.714C55.4049 127.788 56.6416 120.39 55.9497 114.468C53.6562 94.9107 23.1379 86.5538 20.5829 61.1183C18.2949 38.2922 30.3671 22.4229 54.4734 27.2333C63.9252 29.1182 73.753 38.6626 73.753 48.6593V59.3586V59.3532Z" fill="#0C0F12"/>
<path d="M125.938 28.0449V44.2193H94.6241V77.0965H119.673V93.2763H94.6241V127.717H125.938V143.897H76.3633V28.0449H125.938Z" fill="#0C0F12"/>
<path d="M181.778 37.9609H162.988V143.898H181.778V37.9609Z" fill="#0C0F12"/>
<path d="M153.594 76.0566H134.805V143.897H153.594V76.0566Z" fill="#0C0F12"/>
<path d="M417.562 27.5547C441.118 29.3797 442.594 46.6763 441.341 66.4734C440.846 74.3073 437.86 83.1708 430.157 86.5157L429.836 87.5835C435.872 89.719 439.086 95.2811 440.443 101.257C443.499 114.719 438.726 130.572 443.406 143.973H425.396C424.235 142.535 423.74 139.811 423.576 137.964C422.824 129.466 424.094 119.943 423.593 111.325C423.298 106.264 422.519 99.5685 417.159 97.3949C416.761 97.2314 414.081 96.4687 413.912 96.4687H404.776V143.973H387.027V27.5547H417.567H417.562ZM404.776 44.2629V79.499C406.16 80.7193 409.407 80.4251 411.324 80.3053C418.232 79.8749 422.465 77.4779 423.07 70.1234C423.424 65.8251 423.571 52.6416 422.111 49.1169C421.348 47.2755 418.537 44.2629 416.527 44.2629H404.782H404.776Z" fill="#0C0F12"/>
<path d="M474.607 26.6546C493.706 24.4918 506.187 33.4261 507.609 52.88C506.667 74.148 508.873 96.4947 507.636 117.632C506.481 137.353 495.101 146.538 475.489 145.034C461.946 143.994 453.35 133.953 452.282 120.732C450.484 98.4232 453.633 73.8321 452.255 51.2838C453.295 38.1003 461.053 28.1854 474.607 26.6546ZM478.257 42.8235C474.28 43.3138 471.747 45.5909 470.777 49.4479C469.54 73.5107 469.54 98.0146 470.777 122.077C473.081 132.139 488.711 130.489 489.288 120.16C490.492 98.4668 490.492 74.1862 489.365 52.8528C489.016 46.2283 485.339 41.9518 478.262 42.8235H478.257Z" fill="#0C0F12"/>
<path d="M536.848 27.5547V120.738C536.848 122.498 539.251 126.208 540.76 127.265C544.432 129.847 551.421 129.193 553.992 125.353C554.287 124.917 555.643 122.002 555.643 121.784V28.3392L556.428 27.5547H572.874V122.307C572.874 128.747 567.274 138.166 561.75 141.462C544.432 151.802 518.582 142.421 518.582 120.215V27.5547H536.854H536.848Z" fill="#0C0F12"/>
<path d="M375.013 66.7083H357.787V51.3075C357.787 50.6755 356.741 47.7664 356.327 47.0255C353.772 42.4167 347.132 41.6432 342.801 44.1546C339.211 46.2356 338.688 51.6616 338.448 55.4641C337.119 76.8302 338.982 100.217 339.118 121.665C340.654 130.431 354.541 131.014 357.117 122.684C358.272 118.963 358.321 101.568 357.815 97.2266C357.728 96.4639 357.755 95.8919 357.003 95.4234H349.436V79.2381H375.019V120.216C375.019 133.056 365.006 143.897 352.302 145.009C334.28 146.583 321.892 138.39 320.699 119.72C319.256 97.134 321.821 73.0168 320.732 50.2724C322.846 32.6762 334.673 25.1746 351.806 26.493C364.761 27.4899 375.019 38.1566 375.019 51.3075V66.7083H375.013Z" fill="#0C0F12"/>
<path d="M603.663 100.119V143.968H585.914V27.5547H615.408C625.105 27.5547 634.034 33.618 637.472 42.5578C641.029 51.8081 640.947 78.8507 636.486 87.785C633.359 94.0499 624.609 100.119 617.495 100.119H603.663ZM603.663 44.2629V83.1544L604.447 83.9389H613.322C613.567 83.9389 616.961 82.9801 617.386 82.7785C619.766 81.6454 621.15 78.355 621.417 75.849C621.945 70.9242 622.071 55.5616 621.292 50.9092C620.867 48.3923 618.186 44.2629 615.414 44.2629H603.668H603.663Z" fill="#0C0F12"/>
</svg>
