<svg width="234" height="234" viewBox="0 0 234 234" fill="none" xmlns="http://www.w3.org/2000/svg">
<g clip-path="url(#clip0_6009_5528)">
<path d="M167.755 47.8262L175.408 76.198L182.785 47.8262H192.143L179.666 89.674V110.812H169.74V89.3907L159.673 56.6213H143.935V75.9147H156.695V84.7098H143.935V110.812H134.008V47.8262H167.755Z" fill="black"/>
<path d="M71.0536 64.8492H61.9793C62.0163 60.3502 61.9938 55.576 56.1535 56.0444C51.7354 56.3985 51.3637 61.4689 52.1247 64.9184C53.7015 72.0637 62.779 77.0971 67.0346 82.9128C76.643 96.0427 70.1221 115.84 51.4265 111.011C46.6045 109.765 41.8438 104.374 41.8438 99.32V91.8013H50.918C50.9036 96.6125 50.3839 103.466 57.2749 102.557C61.0848 102.053 61.7573 98.0322 61.3808 94.8113C60.1339 84.1795 43.5508 79.6355 42.1623 65.8069C40.917 53.3965 47.4782 44.7704 60.578 47.3844C65.7152 48.4098 71.0552 53.5993 71.0552 59.0335V64.8492H71.0536Z" fill="black"/>
<path d="M99.4124 47.8262V56.6213H82.3981V74.4966H96.0095V83.2917H82.3981V102.017H99.4124V110.812H72.4727V47.8262H99.4124Z" fill="black"/>
<path d="M129.755 53.2168H119.547V110.81H129.755V53.2168Z" fill="black"/>
<path d="M114.443 73.9277H104.234V110.811H114.443V73.9277Z" fill="black"/>
<path d="M83.0006 122.873C95.8028 123.865 96.6056 133.268 95.9218 144.03C95.6515 148.29 94.0313 153.107 89.8433 154.926L89.668 155.507C92.9469 156.668 94.6958 159.692 95.4327 162.941C97.0931 170.258 94.5011 178.879 97.0432 186.165H87.2562C86.6255 185.381 86.3552 183.903 86.2667 182.897C85.858 178.276 86.5483 173.101 86.2764 168.413C86.1155 165.661 85.6939 162.023 82.7818 160.842C82.5646 160.753 81.1085 160.338 81.0168 160.338H76.0517V186.165H66.4062V122.873H83.0022H83.0006ZM76.0501 131.955V151.113C76.8031 151.776 78.568 151.615 79.6074 151.551C83.3626 151.316 85.6618 150.012 85.99 146.015C86.1814 143.679 86.2635 136.51 85.4687 134.596C85.0536 133.597 83.5267 131.956 82.4343 131.956H76.0517L76.0501 131.955Z" fill="black"/>
<path d="M113.996 122.383C124.375 121.208 131.158 126.064 131.931 136.64C131.419 148.202 132.618 160.35 131.945 171.843C131.318 182.563 125.133 187.559 114.476 186.742C107.116 186.177 102.444 180.717 101.865 173.53C100.888 161.403 102.598 148.033 101.85 135.774C102.417 128.606 106.632 123.215 113.996 122.381V122.383ZM115.98 131.175C113.821 131.44 112.44 132.678 111.916 134.776C111.245 147.857 111.245 161.18 111.916 174.262C113.169 179.732 121.661 178.835 121.975 173.221C121.331 161.343 122.935 148.379 122.017 136.628C121.735 133.032 119.83 130.702 115.981 131.176L115.98 131.175Z" fill="black"/>
<path d="M147.821 122.873V173.533C147.821 174.49 149.126 176.506 149.946 177.083C151.941 178.486 155.738 178.131 157.136 176.041C157.296 175.805 158.033 174.219 158.033 174.1V123.296L158.457 122.871H167.393V174.383C167.393 177.883 164.351 183.006 161.35 184.798C151.938 190.419 137.891 185.318 137.891 173.248V122.871H147.819L147.821 122.873Z" fill="black"/>
<path d="M59.8763 144.159H50.514V135.787C50.514 135.444 49.9461 133.864 49.7208 133.458C48.3323 130.954 44.7235 130.533 42.3697 131.897C40.4181 133.027 40.1333 135.979 40.0046 138.046C39.2822 149.663 40.2942 162.377 40.3682 174.036C41.2032 178.8 48.7474 179.119 50.1504 174.59C50.7763 172.568 50.8052 163.108 50.5285 160.748C50.4802 160.333 50.4963 160.022 50.0893 159.77H45.9753V150.971H59.8763V173.25C59.8763 180.233 54.4349 186.126 47.5327 186.728C37.7408 187.583 31.0075 183.13 30.3591 172.98C29.5756 160.702 30.9689 147.589 30.3752 135.222C31.5256 125.655 37.9516 121.577 47.2624 122.295C54.3014 122.838 59.8763 128.636 59.8763 135.787V144.159Z" fill="black"/>
<path d="M184.13 162.324V186.165H174.484V122.873H190.512C195.782 122.873 200.632 126.168 202.502 131.029C204.436 136.059 204.391 150.76 201.968 155.618C200.269 159.026 195.513 162.322 191.648 162.322H184.13V162.324ZM184.13 131.955V153.099L184.555 153.524H189.377C189.508 153.524 191.352 153.004 191.584 152.895C192.879 152.28 193.63 150.49 193.775 149.128C194.063 146.45 194.131 138.099 193.706 135.57C193.476 134.202 192.018 131.955 190.511 131.955H184.128H184.13Z" fill="black"/>
</g>
<defs>
<clipPath id="clip0_6009_5528">
<rect width="173.763" height="140.169" fill="white" transform="translate(30.1172 46.916)"/>
</clipPath>
</defs>
</svg>
